<svg xmlns="http://www.w3.org/2000/svg" viewBox="0 0 900 680" font-family="Arial, sans-serif">
  <defs>
    <marker id="arrowhead" markerWidth="8" markerHeight="6" refX="7" refY="3" orient="auto">
      <polygon points="0 0, 8 3, 0 6" fill="#667788" />
    </marker>
    <marker id="arrowhead-red" markerWidth="8" markerHeight="6" refX="7" refY="3" orient="auto">
      <polygon points="0 0, 8 3, 0 6" fill="#E74C3C" />
    </marker>
  </defs>

  <rect width="100%" height="100%" fill="#f5f7fa" />

  <rect x="60" y="80" width="220" height="180" rx="8" ry="8" fill="#FEF9E7" stroke="#F1C40F" stroke-width="2" />
  <circle cx="85" cy="110" r="12" fill="#F1C40F" />
  <text x="85" y="114" font-size="12" text-anchor="middle" fill="white">1</text>
  <text x="170" y="115" font-size="18" text-anchor="middle">Inputs</text>
  <text x="80" y="145" font-size="14" text-anchor="start">• Upload document</text>
  <text x="80" y="170" font-size="14" text-anchor="start">• Select analysis type</text>
  <text x="80" y="195" font-size="14" text-anchor="start">• Configure detail level</text>
  <text x="80" y="220" font-size="14" text-anchor="start">• Set focus areas</text>
  <text x="80" y="245" font-size="14" text-anchor="start">• Choose LLM model</text>

  <rect x="60" y="280" width="220" height="180" rx="8" ry="8" fill="#FCF3CF" stroke="#E67E22" stroke-width="2" />
  <circle cx="85" cy="310" r="12" fill="#E67E22" />
  <text x="85" y="314" font-size="12" text-anchor="middle" fill="white">2</text>
  <text x="170" y="315" font-size="18" text-anchor="middle">Initialization</text>
  <text x="80" y="345" font-size="14" text-anchor="start">• Create orchestrator</text>
  <text x="80" y="370" font-size="14" text-anchor="start">• Initialize context</text>
  <text x="80" y="395" font-size="14" text-anchor="start">• Assemble agent crew</text>
  <text x="80" y="420" font-size="14" text-anchor="start">• Preprocess document</text>
  <text x="80" y="445" font-size="14" text-anchor="start">• Setup analysis pipeline</text>

  <rect x="330" y="140" width="300" height="270" rx="8" ry="8" fill="#E8F8F5" stroke="#1ABC9C" stroke-width="2" />
  <circle cx="355" cy="175" r="12" fill="#1ABC9C" />
  <text x="355" y="179" font-size="12" text-anchor="middle" fill="white">3</text>
  <text x="480" y="175" font-size="18" text-anchor="middle">Orchestration</text>
  <text x="350" y="215" font-size="14" text-anchor="start">• Document structure analysis</text>
  <text x="350" y="245" font-size="14" text-anchor="start">• Section identification &amp; chunking</text>
  <text x="350" y="275" font-size="14" text-anchor="start">• User preference integration</text>
  <text x="350" y="305" font-size="14" text-anchor="start">• Dynamic instruction generation</text>
  <text x="350" y="335" font-size="14" text-anchor="start">• Agent coordination strategy</text>
  <text x="350" y="365" font-size="14" text-anchor="start">• Processing pipeline configuration</text>
  <text x="350" y="395" font-size="14" text-anchor="start">• Execution monitoring setup</text>

  <rect x="650" y="80" width="240" height="330" rx="8" ry="8" fill="#EDE7F6" stroke="#9C27B0" stroke-width="2" />
  <circle cx="675" cy="110" r="12" fill="#9C27B0" />
  <text x="675" y="114" font-size="12" text-anchor="middle" fill="white">4</text>
  <text x="770" y="115" font-size="18" text-anchor="middle">Pipeline</text>

  <rect x="695" y="145" width="150" height="40" rx="5" ry="5" fill="#E8F8F5" stroke="#1ABC9C" stroke-width="1.5" />
  <text x="770" y="170" font-size="15" text-anchor="middle">🧠 Planner</text>

  <rect x="675" y="205" width="90" height="45" rx="5" ry="5" fill="#FFFFFF" stroke="#9C27B0" stroke-width="1.5" />
  <text x="720" y="233" font-size="13" text-anchor="middle">🔍 Extractor</text>

  <rect x="675" y="260" width="90" height="45" rx="5" ry="5" fill="#FFFFFF" stroke="#9C27B0" stroke-width="1.5" />
  <text x="720" y="288" font-size="13" text-anchor="middle">🧩 Aggregator</text>

  <rect x="775" y="205" width="90" height="45" rx="5" ry="5" fill="#FFFFFF" stroke="#9C27B0" stroke-width="1.5" />
  <text x="820" y="233" font-size="13" text-anchor="middle">⚖️ Evaluator</text>

  <rect x="775" y="260" width="90" height="45" rx="5" ry="5" fill="#FFFFFF" stroke="#9C27B0" stroke-width="1.5" />
  <text x="820" y="288" font-size="13" text-anchor="middle">📊 Formatter</text>

  <rect x="695" y="325" width="150" height="40" rx="5" ry="5" fill="#E8F8F5" stroke="#1ABC9C" stroke-width="1.5" />
  <text x="770" y="350" font-size="15" text-anchor="middle">🔎 Reviewer</text>

  <line x1="720" y1="250" x2="720" y2="260" stroke="#667788" stroke-width="1.5" />
  <line x1="765" y1="233" x2="775" y2="233" stroke="#667788" stroke-width="1.5" />
  <line x1="765" y1="288" x2="775" y2="288" stroke="#667788" stroke-width="1.5" />
  <line x1="820" y1="250" x2="820" y2="260" stroke="#667788" stroke-width="1.5" />

  <line x1="745" y1="185" x2="720" y2="205" stroke="#1ABC9C" stroke-width="1.5" marker-end="url(#arrowhead)" />
  <line x1="795" y1="185" x2="820" y2="205" stroke="#1ABC9C" stroke-width="1.5" marker-end="url(#arrowhead)" />
  <line x1="745" y1="325" x2="720" y2="305" stroke="#1ABC9C" stroke-width="1.5" marker-end="url(#arrowhead)" />
  <line x1="795" y1="325" x2="820" y2="305" stroke="#1ABC9C" stroke-width="1.5" marker-end="url(#arrowhead)" />

  <rect x="650" y="480" width="240" height="180" rx="8" ry="8" fill="#FADBD8" stroke="#E74C3C" stroke-width="2" />
  <circle cx="675" cy="510" r="12" fill="#E74C3C" />
  <text x="675" y="514" font-size="12" text-anchor="middle" fill="white">5</text>
  <text x="770" y="515" font-size="18" text-anchor="middle">Output</text>
  <text x="670" y="545" font-size="14" text-anchor="start">• Formatted HTML report</text>
  <text x="670" y="570" font-size="14" text-anchor="start">• Priority categorization</text>
  <text x="670" y="595" font-size="14" text-anchor="start">• Quality assessment</text>
  <text x="670" y="620" font-size="14" text-anchor="start">• Processing statistics</text>
  <text x="670" y="645" font-size="14" text-anchor="start">• Download options</text>

  <rect x="250" y="480" width="300" height="180" rx="8" ry="8" fill="#EBF5FB" stroke="#3498DB" stroke-width="2" />
  <circle cx="275" cy="510" r="12" fill="#3498DB" />
  <text x="275" y="514" font-size="12" text-anchor="middle" fill="white">6</text>
  <text x="400" y="515" font-size="18" text-anchor="middle">Post-Assessment</text>
  <text x="270" y="545" font-size="14" text-anchor="start">• Document Chat with context awareness</text>
  <text x="270" y="570" font-size="14" text-anchor="start">• Analysis parameter refinement</text>
  <text x="270" y="595" font-size="14" text-anchor="start">• Comparative analysis across focus areas</text>
  <text x="270" y="620" font-size="14" text-anchor="start">• Iterative insight development</text>
  <text x="270" y="645" font-size="14" text-anchor="start">• Action plan development</text>

  <line x1="170" y1="260" x2="170" y2="280" stroke="#667788" stroke-width="2" marker-end="url(#arrowhead)" />

  <line x1="280" y1="370" x2="330" y2="370" stroke="#667788" stroke-width="2" marker-end="url(#arrowhead)" />

  <line x1="630" y1="275" x2="650" y2="275" stroke="#667788" stroke-width="2" marker-end="url(#arrowhead)" />

  <line x1="770" y1="410" x2="770" y2="480" stroke="#667788" stroke-width="2" marker-end="url(#arrowhead)" />

  <line x1="650" y1="570" x2="550" y2="570" stroke="#667788" stroke-width="2" marker-end="url(#arrowhead)" />

  <line x1="550" y1="540" x2="650" y2="540" stroke="#667788" stroke-width="2" marker-end="url(#arrowhead)" />

  <line x1="400" y1="480" x2="400" y2="410" stroke="#E74C3C" stroke-width="2.5" marker-end="url(#arrowhead-red)" />
  <text x="415" y="445" font-size="14" fill="#E74C3C">Re-run</text>
</svg>